<svg xmlns="http://www.w3.org/2000/svg" xmlns:xlink="http://www.w3.org/1999/xlink" width="1501.391" height="354.173" viewBox="0 0 1501.391 354.173">
  <defs>
    <clipPath id="clip-path">
      <rect width="1501.391" height="354.173" fill="none"/>
    </clipPath>
  </defs>
  <g id="gipara_logo" clip-path="url(#clip-path)">
    <g id="gipara_logo-2" data-name="gipara_logo" transform="translate(-101.292 -90.385)">
      <path id="Path_1" data-name="Path 1" d="M997.255,204.975h9.687q10.516,0,15.914,3.264t3.519,11.994a19.156,19.156,0,0,1-10.389,13.618q-8.4,4.348-21.7,4.355H984.052Zm-12.844,80.643A170.628,170.628,0,0,0,1023.8,281.4a103.091,103.091,0,0,0,31.56-12.942,76.924,76.924,0,0,0,22.911-22.347q9.145-13.624,13.117-32.157c3.178-14.833,1.243-27.027-5.624-36.649H944.208L881.115,337.652h63.729l20.75-52.033Z" transform="translate(-59.049 -6.582)"/>
      <path id="Path_2" data-name="Path 2" d="M1622.8,177.307,1488.375,337.652H1556.5l90.518-117.766-.246,1.893-4.759,49.128h-14.929l-34.914,48.222h44.776l-1.178,18.523h66.142l5.8-160.345Z" transform="translate(-105.031 -6.582)"/>
      <path id="Path_3" data-name="Path 3" d="M1179.822,177.307,1045.407,337.652h68.1l90.514-117.766-.187,1.447.011-.015-4.8,49.589h-14.954l-34.91,48.222h44.8l-1.175,18.523h66.136l5.8-160.345Z" transform="translate(-71.489 -6.582)"/>
      <path id="Path_4" data-name="Path 4" d="M878.265,229.486H834.618l63.9-52.179H834.29L771.195,337.652h64.5Z" transform="translate(-50.726 -6.582)"/>
      <path id="Path_5" data-name="Path 5" d="M1123.374,398.942l-4.74,12.249h20.844l-4.25,11.1h-20.854l-8.654,22.529h-12.906l22.081-57.375h35l-4.427,11.5Z" transform="translate(-75.079 -22.494)"/>
      <path id="Path_6" data-name="Path 6" d="M1187.538,444.817l22.074-57.375h13.132l-22.065,57.375Z" transform="translate(-82.252 -22.494)"/>
      <path id="Path_7" data-name="Path 7" d="M1302.228,399.03l-17.633,45.787h-13.052l17.547-45.787h-15.568l4.518-11.588h43.891l-4.439,11.588Z" transform="translate(-88.613 -22.494)"/>
      <path id="Path_8" data-name="Path 8" d="M1390.052,444.817l-7.214-38.1h-.237l-14.415,38.1h-12.908l22.08-57.375h14.707l7.186,37.844h.161l14.367-37.844h12.9l-22.072,57.375Z" transform="translate(-94.953 -22.494)"/>
      <path id="Path_9" data-name="Path 9" d="M1469.41,444.817l22.079-57.375h35.63l-4.419,11.5h-23.123l-4.261,11.109h22.027l-4.2,10.862h-22.037l-4.667,12.314h25.325l-4.439,11.59Z" transform="translate(-103.595 -22.494)"/>
      <path id="Path_10" data-name="Path 10" d="M1611.18,401.253a7.484,7.484,0,0,0-3.225-3.32,10.54,10.54,0,0,0-5.032-1.133,12.676,12.676,0,0,0-2.909.362,9.958,9.958,0,0,0-2.974,1.212,10.237,10.237,0,0,0-2.5,2.155,6.943,6.943,0,0,0-1.5,3.151,3.809,3.809,0,0,0,1.025,3.857,15.238,15.238,0,0,0,4.59,2.626,34.221,34.221,0,0,1,5.835,2.88,15.084,15.084,0,0,1,4.027,3.609,10.68,10.68,0,0,1,2.017,4.585,14.786,14.786,0,0,1-.222,5.793,21.062,21.062,0,0,1-3.971,8.821,24.672,24.672,0,0,1-6.655,5.97,28.211,28.211,0,0,1-8.1,3.352,34.982,34.982,0,0,1-8.326,1.056,30.332,30.332,0,0,1-5.867-.569,26.054,26.054,0,0,1-5.384-1.649,18.233,18.233,0,0,1-4.516-2.8,13.63,13.63,0,0,1-3.184-3.887l11.41-8.108a8.771,8.771,0,0,0,3.972,4.218,12.449,12.449,0,0,0,6.186,1.614,16.455,16.455,0,0,0,3.425-.361,10.652,10.652,0,0,0,3.125-1.22,8.636,8.636,0,0,0,2.476-2.186,7.928,7.928,0,0,0,1.431-3.207,4.579,4.579,0,0,0-1.344-4.731,18.583,18.583,0,0,0-5.636-3.126,33.659,33.659,0,0,1-4.686-2.191,11.81,11.81,0,0,1-3.521-2.991,10.15,10.15,0,0,1-1.929-4.263,14.041,14.041,0,0,1,.215-5.948,20.75,20.75,0,0,1,3.448-7.911,24.629,24.629,0,0,1,6.112-6,29.124,29.124,0,0,1,7.984-3.817,31.012,31.012,0,0,1,9.014-1.325,24.754,24.754,0,0,1,4.853.481,22.527,22.527,0,0,1,4.526,1.412,16.389,16.389,0,0,1,3.792,2.32,10.455,10.455,0,0,1,2.634,3.153Z" transform="translate(-110.781 -22.367)"/>
      <path id="Path_11" data-name="Path 11" d="M1707.948,401.253a7.484,7.484,0,0,0-3.225-3.32,10.519,10.519,0,0,0-5.037-1.133,12.784,12.784,0,0,0-2.909.362,10.047,10.047,0,0,0-2.967,1.212,10.558,10.558,0,0,0-2.505,2.155,7.022,7.022,0,0,0-1.5,3.151,3.8,3.8,0,0,0,1.032,3.857,15.075,15.075,0,0,0,4.59,2.626,34.548,34.548,0,0,1,5.832,2.88,14.941,14.941,0,0,1,4.023,3.609,10.567,10.567,0,0,1,2.019,4.585,14.787,14.787,0,0,1-.22,5.793,21.155,21.155,0,0,1-3.963,8.821,24.838,24.838,0,0,1-6.66,5.97,28.277,28.277,0,0,1-8.109,3.352,35.042,35.042,0,0,1-8.331,1.056,30.33,30.33,0,0,1-5.862-.569,26.276,26.276,0,0,1-5.384-1.649,18.108,18.108,0,0,1-4.511-2.8,13.6,13.6,0,0,1-3.192-3.887l11.415-8.108a8.813,8.813,0,0,0,3.968,4.218,12.434,12.434,0,0,0,6.189,1.614,16.472,16.472,0,0,0,3.427-.361,10.78,10.78,0,0,0,3.128-1.22,8.641,8.641,0,0,0,2.471-2.186,7.953,7.953,0,0,0,1.433-3.207,4.577,4.577,0,0,0-1.345-4.731,18.557,18.557,0,0,0-5.638-3.126,33.984,33.984,0,0,1-4.682-2.191,11.874,11.874,0,0,1-3.522-2.991,10.083,10.083,0,0,1-1.927-4.263,14.159,14.159,0,0,1,.21-5.948,20.831,20.831,0,0,1,3.452-7.911,24.575,24.575,0,0,1,6.12-6,28.985,28.985,0,0,1,7.973-3.817,31,31,0,0,1,9.014-1.325,24.715,24.715,0,0,1,4.853.481,22.5,22.5,0,0,1,4.526,1.412,16.32,16.32,0,0,1,3.8,2.32,10.446,10.446,0,0,1,2.632,3.153Z" transform="translate(-118.109 -22.367)"/>
      <path id="Path_12" data-name="Path 12" d="M1443.931,220.233h0a18.862,18.862,0,0,1-10.084,13.479q-8.113,4.236-20.838,4.226h-12.732l12.76-32.424h11.909c6.81,0,11.993,1.045,15.515,3.132s4.679,5.95,3.47,11.588m46.115,28.329q14.815-15.533,19.948-39.508,2.74-12.805.031-22.749a34.721,34.721,0,0,0-3.875-9H1362.321l-63.1,160.345h61.657l23.072-59.659h7.756l9.921,59.659h70.837l-18.388-67.835A76.183,76.183,0,0,0,1490.047,248.562Z" transform="translate(-90.709 -6.582)"/>
      <path id="Path_13" data-name="Path 13" d="M764.689,225.69h-51.91l-61.238,50.378h35.716L680.5,293.227A39.036,39.036,0,0,1,672,295.442a61.171,61.171,0,0,1-9.877.83q-20.812,0-28.092-10.66t-3.779-26.982a75.08,75.08,0,0,1,9.309-23.8,76.437,76.437,0,0,1,14.931-17.852,65.289,65.289,0,0,1,18.464-11.348,53,53,0,0,1,19.834-4.011q12.659,0,19.721,4.428a26.331,26.331,0,0,1,10.3,11.626L776.4,172.28q-7.965-12.723-26.637-20.077-18.665-7.308-44.541-7.327a134.6,134.6,0,0,0-49.956,9.415,151.062,151.062,0,0,0-42.912,25.735,159.7,159.7,0,0,0-32.494,38.191,149.189,149.189,0,0,0-18.792,47.057q-4.438,20.749-.743,36.951a56.432,56.432,0,0,0,14.405,27.26,57.783,57.783,0,0,0,6.624,5.8H721.8Z" transform="translate(-34.632 -4.126)"/>
      <path id="Path_14" data-name="Path 14" d="M433.931,180.43l-73.822,62.531a37.929,37.929,0,0,0-14.825-16.726q-10.169-6.365-28.378-6.359a76.37,76.37,0,0,0-28.526,5.769,93.3,93.3,0,0,0-26.545,16.328,109.565,109.565,0,0,0-21.478,25.674,107.764,107.764,0,0,0-13.4,34.237q-5.021,23.482,5.435,38.81t40.4,15.34a88.636,88.636,0,0,0,14.21-1.2,57.529,57.529,0,0,0,12.217-3.179l9.732-24.687h-51.38L345.663,254.5h74.664l-61.7,157.651H172.678A177.059,177.059,0,0,0,433.931,180.43" transform="translate(-5.405 -6.818)" fill="#ffdb00"/>
      <path id="Path_15" data-name="Path 15" d="M122.044,304.617a214.42,214.42,0,0,1,27.025-67.678A229.746,229.746,0,0,1,195.809,182a217.057,217.057,0,0,1,61.713-37.018,193.517,193.517,0,0,1,71.869-13.543q37.206,0,64.065,10.54a102.866,102.866,0,0,1,18.663,9.5,177.084,177.084,0,0,0-293.144,193.2q-1.579-18.3,3.069-40.059" transform="translate(0 0)" fill="#ffdb00"/>
    </g>
  </g>
</svg>
